<?xml version="1.0" standalone="no"?>
<!DOCTYPE svg PUBLIC "-//W3C//DTD SVG 20010904//EN"
 "http://www.w3.org/TR/2001/REC-SVG-20010904/DTD/svg10.dtd">
<svg version="1.0" xmlns="http://www.w3.org/2000/svg"
 width="64.000000pt" height="64.000000pt" viewBox="0 0 64.000000 64.000000"
 preserveAspectRatio="xMidYMid meet">

<g transform="translate(0.000000,64.000000) scale(0.100000,-0.100000)"
fill="#000000" stroke="none">
<path d="M427 606 c-128 -46 -146 -197 -34 -280 20 -14 43 -20 81 -20 96 0
164 77 153 172 -11 97 -110 160 -200 128z m124 -39 c90 -61 66 -208 -40 -237
-144 -38 -233 146 -115 239 37 29 110 28 155 -2z"/>
<path d="M402 555 c-64 -54 -67 -131 -6 -184 67 -59 166 -31 194 54 36 109
-101 203 -188 130z m145 -30 c53 -61 9 -165 -70 -165 -43 0 -92 38 -100 77 -7
36 14 85 44 107 34 25 97 15 126 -19z"/>
<path d="M447 517 c-24 -30 -18 -49 21 -66 38 -17 42 -31 7 -31 -14 0 -25 5
-25 10 0 6 -4 10 -10 10 -17 0 -11 -25 10 -43 19 -16 22 -16 46 -1 40 27 28
60 -30 79 -15 4 -17 8 -7 18 9 9 16 9 30 0 28 -18 34 -3 9 24 -26 28 -29 28
-51 0z"/>
<path d="M146 417 c-25 -24 -46 -52 -46 -63 0 -11 -5 -25 -11 -31 -8 -8 -1
-25 24 -61 l35 -50 -35 -23 c-53 -35 -95 -91 -96 -130 l-2 -34 198 -3 197 -2
0 26 c0 44 -46 111 -96 140 l-45 27 20 21 c12 12 21 27 21 34 0 6 8 15 18 21
14 8 15 13 5 30 -7 12 -13 29 -13 38 -1 34 -75 103 -111 103 -9 0 -37 -19 -63
-43z m82 -4 c-4 -33 -24 -41 -33 -14 -8 25 1 41 21 41 11 0 14 -8 12 -27z
m-15 -51 c12 2 26 13 32 26 5 12 13 22 17 22 11 0 38 -43 38 -62 0 -16 -10
-18 -90 -18 -100 0 -107 6 -68 55 l21 27 14 -26 c10 -19 21 -26 36 -24z m77
-91 c0 -18 -53 -51 -80 -51 -27 0 -80 33 -80 51 0 5 36 9 80 9 44 0 80 -4 80
-9z m-9 -91 c10 -6 19 -20 19 -30 0 -18 -7 -20 -90 -20 -83 0 -90 2 -90 20 0
10 8 24 18 29 22 14 118 14 143 1z m-70 -70 c102 0 109 1 109 20 0 11 5 20 11
20 6 0 9 -21 7 -52 l-3 -53 -125 0 -125 0 -3 39 c-4 45 9 85 15 49 4 -22 8
-23 114 -23z m-151 -30 c0 -20 -5 -30 -14 -30 -12 0 -13 6 -5 30 6 17 13 30
15 30 2 0 4 -13 4 -30z m330 -22 c0 -5 -7 -8 -15 -8 -10 0 -15 10 -15 33 l1
32 14 -25 c8 -14 14 -28 15 -32z"/>
</g>
</svg>
