<?xml version="1.0" standalone="no"?>
<!DOCTYPE svg PUBLIC "-//W3C//DTD SVG 20010904//EN"
 "http://www.w3.org/TR/2001/REC-SVG-20010904/DTD/svg10.dtd">
<svg version="1.0" xmlns="http://www.w3.org/2000/svg"
 width="512.000000pt" height="512.000000pt" viewBox="0 0 512.000000 512.000000"
 preserveAspectRatio="xMidYMid meet">

<g transform="translate(0.000000,512.000000) scale(0.100000,-0.100000)"
fill="#000000" stroke="none">
<path d="M2325 5029 c-598 -61 -1132 -319 -1545 -745 -376 -388 -605 -863
-681 -1414 -18 -124 -18 -496 0 -620 65 -470 235 -869 529 -1245 82 -105 314
-330 425 -413 330 -248 706 -412 1087 -476 110 -18 291 -36 368 -36 l52 0 0
78 0 79 -115 7 c-572 32 -1087 253 -1491 639 -210 200 -356 400 -484 662 -112
228 -172 420 -216 690 -25 153 -25 504 0 665 103 664 466 1234 1021 1604 211
141 525 274 777 330 199 43 280 51 518 50 195 -1 244 -5 370 -27 735 -131
1336 -570 1676 -1221 179 -345 257 -665 258 -1061 1 -273 -25 -457 -98 -690
-138 -446 -404 -841 -758 -1126 -145 -116 -127 -117 -193 6 -31 58 -65 110
-75 115 -32 17 -75 11 -97 -12 -40 -44 -293 -534 -293 -567 0 -39 28 -68 72
-75 37 -6 566 -56 592 -56 26 0 66 46 66 76 0 14 -30 81 -66 147 l-66 122 23
15 c77 50 241 190 344 294 564 568 817 1385 674 2176 -156 869 -771 1596
-1599 1893 -337 121 -734 171 -1075 136z m1459 -4531 c42 -78 74 -143 72 -146
-4 -4 -278 19 -284 24 -3 2 130 263 135 264 1 0 36 -64 77 -142z"/>
<path d="M1465 4215 c-21 -20 -25 -34 -25 -80 l0 -55 -136 0 c-78 0 -154 -5
-178 -12 -55 -16 -138 -99 -154 -154 -9 -31 -12 -309 -12 -1153 l0 -1112 25
-24 24 -25 896 0 895 0 0 -175 c0 -173 0 -176 25 -200 l24 -25 751 0 751 0 24
25 25 24 0 669 0 668 -170 215 c-94 118 -178 220 -187 227 -12 8 -59 12 -150
12 l-133 0 0 416 c0 293 -4 428 -12 456 -6 22 -31 62 -55 88 -61 68 -102 80
-275 80 l-138 0 0 55 c0 46 -4 60 -25 80 -24 25 -26 25 -215 25 -189 0 -191 0
-215 -25 -21 -20 -25 -34 -25 -80 l0 -55 -440 0 -440 0 0 55 c0 46 -4 60 -25
80 -24 25 -26 25 -215 25 -189 0 -191 0 -215 -25z m-25 -392 c0 -86 3 -99 22
-120 21 -23 26 -23 217 -23 247 0 241 -4 241 142 l0 98 440 0 440 0 0 -97 c0
-86 3 -99 22 -120 21 -23 26 -23 217 -23 247 0 241 -4 241 143 l0 99 135 -4
c182 -4 179 -1 183 -183 l4 -135 -1242 0 -1242 0 4 134 c4 186 1 182 201 185
l117 1 0 -97z m2160 -583 l0 -200 -216 0 -216 0 -26 -28 c-15 -15 -44 -47 -64
-72 l-37 -45 -1 128 c0 122 -1 129 -25 152 -24 25 -26 25 -215 25 -257 0 -240
17 -240 -238 0 -251 -12 -235 189 -242 l150 -5 -49 -64 c-46 -58 -50 -68 -50
-117 l0 -54 -95 0 c-88 0 -98 -2 -120 -25 -25 -24 -25 -26 -25 -215 0 -189 0
-191 25 -215 22 -23 32 -25 120 -25 l95 0 0 -120 0 -120 -840 0 -840 0 0 840
0 840 1240 0 1240 0 0 -200z m454 -477 l94 -118 -274 -3 c-151 -1 -397 -1
-548 0 l-274 3 94 118 95 117 359 0 359 0 95 -117z m186 -843 l0 -560 -640 0
-640 0 0 560 0 560 640 0 640 0 0 -560z"/>
<path d="M1305 3175 c-25 -24 -25 -26 -25 -215 0 -257 -17 -240 240 -240 257
0 240 -17 240 240 0 257 17 240 -240 240 -189 0 -191 0 -215 -25z"/>
<path d="M1945 3175 c-25 -24 -25 -26 -25 -215 0 -257 -17 -240 240 -240 257
0 240 -17 240 240 0 257 17 240 -240 240 -189 0 -191 0 -215 -25z"/>
<path d="M1305 2455 c-25 -24 -25 -26 -25 -215 0 -257 -17 -240 240 -240 189
0 191 0 215 25 25 24 25 26 25 215 0 257 17 240 -240 240 -189 0 -191 0 -215
-25z"/>
<path d="M1945 2455 c-25 -24 -25 -26 -25 -215 0 -257 -17 -240 240 -240 189
0 191 0 215 25 25 24 25 26 25 215 0 257 17 240 -240 240 -189 0 -191 0 -215
-25z"/>
<path d="M3500 2383 c-88 -31 -180 -154 -180 -240 0 -22 3 -23 78 -23 l77 0
17 40 c18 43 68 80 108 80 56 0 120 -65 120 -122 0 -55 -66 -118 -125 -118
-14 0 -37 -11 -50 -25 -24 -23 -25 -29 -25 -160 l0 -135 80 0 80 0 0 84 0 84
45 22 c57 27 119 98 139 157 36 105 11 209 -68 289 -80 80 -189 104 -296 67z"/>
<path d="M3545 1575 c-50 -49 -15 -135 55 -135 41 0 80 39 80 80 0 41 -39 80
-80 80 -19 0 -40 -9 -55 -25z"/>
</g>
</svg>
