<?xml version="1.0" standalone="no"?>
<!DOCTYPE svg PUBLIC "-//W3C//DTD SVG 20010904//EN"
 "http://www.w3.org/TR/2001/REC-SVG-20010904/DTD/svg10.dtd">
<svg version="1.0" xmlns="http://www.w3.org/2000/svg"
 width="512.000000pt" height="512.000000pt" viewBox="0 0 512.000000 512.000000"
 preserveAspectRatio="xMidYMid meet">

<g transform="translate(0.000000,512.000000) scale(0.100000,-0.100000)"
fill="#000000" stroke="none">
<path d="M195 5016 c-16 -8 -41 -24 -54 -36 -54 -52 -51 68 -51 -2077 l0
-1988 413 -413 413 -413 1700 3 1699 4 125 23 c158 29 264 62 362 113 98 50
156 101 193 169 28 51 30 61 29 159 -2 280 -147 562 -378 736 -80 61 -118 77
-148 63 -13 -5 -68 -78 -122 -160 -109 -164 -113 -166 -117 -57 -1 35 8 78 25
128 38 105 21 166 -54 205 -42 21 -279 21 -323 0 -75 -36 -91 -103 -53 -214
26 -73 30 -127 17 -186 -7 -29 -11 -23 -106 120 -57 85 -111 156 -126 164 -25
14 -30 13 -84 -20 -144 -86 -308 -281 -372 -444 -54 -136 -67 -199 -68 -330 0
-113 2 -123 27 -165 30 -50 83 -104 143 -144 l40 -26 -1158 0 -1157 0 0 368 0
369 -23 21 c-23 22 -27 22 -390 22 l-367 0 2 1938 3 1937 1820 0 1820 0 2
-1185 3 -1185 -43 -24 c-249 -142 -324 -458 -164 -693 50 -74 141 -146 224
-179 49 -19 76 -23 173 -23 96 0 124 3 169 22 229 96 355 338 296 567 -55 210
-251 365 -462 365 l-53 0 0 1173 0 1174 -23 43 c-16 30 -37 51 -67 67 l-43 23
-1831 0 c-1511 -1 -1836 -3 -1861 -14z m4020 -2640 c63 -31 138 -109 168 -174
16 -36 21 -67 22 -132 0 -73 -4 -93 -28 -142 -36 -74 -96 -134 -165 -166 -48
-23 -71 -27 -142 -27 -71 0 -94 4 -140 26 -77 36 -121 78 -160 151 -62 116
-51 255 30 364 90 124 275 168 415 100z m-83 -1383 l17 -128 -34 -55 c-18 -30
-37 -56 -42 -57 -6 -2 -27 22 -47 52 l-37 57 17 129 17 129 46 0 47 0 16 -127z
m-3262 -395 l0 -273 -138 140 c-75 76 -196 199 -269 272 l-132 133 269 0 270
0 0 -272z"/>
<path d="M663 4553 c-52 -10 -53 -19 -53 -414 0 -346 1 -368 19 -390 l19 -24
1407 0 1407 0 19 24 c18 22 19 44 19 391 0 347 -1 369 -19 391 l-19 24 -1389
1 c-763 1 -1398 -1 -1410 -3z m2697 -413 l0 -270 -1305 0 -1305 0 0 270 0 270
1305 0 1305 0 0 -270z"/>
<path d="M630 3250 c-20 -20 -20 -33 -20 -795 l0 -776 25 -24 24 -25 771 0
771 0 24 25 25 24 0 776 c0 762 0 775 -20 795 -20 20 -33 20 -800 20 -767 0
-780 0 -800 -20z m1480 -795 l0 -675 -680 0 -680 0 0 675 0 675 680 0 680 0 0
-675z"/>
<path d="M1653 2978 c-25 -29 -573 -980 -573 -996 0 -26 25 -61 51 -72 57 -24
62 -17 361 500 154 266 282 497 285 512 4 20 -1 33 -20 52 -33 33 -76 34 -104
4z"/>
<path d="M1067 2927 c-95 -30 -157 -125 -157 -237 0 -77 12 -120 49 -171 94
-133 269 -112 346 41 26 50 31 157 12 214 -40 118 -149 185 -250 153z m68
-143 c45 -18 61 -131 24 -178 -25 -31 -51 -33 -77 -5 -40 43 -34 142 11 174
25 17 21 17 42 9z"/>
<path d="M1698 2470 c-110 -33 -175 -139 -166 -269 8 -104 58 -181 140 -215
142 -60 283 64 280 245 -2 114 -72 214 -167 238 -49 12 -50 12 -87 1z m86
-173 c40 -54 20 -161 -33 -174 -57 -14 -94 94 -56 167 25 48 56 51 89 7z"/>
<path d="M2500 3243 c-15 -19 -19 -35 -15 -53 14 -57 -4 -55 501 -58 l464 -3
25 25 c30 30 32 69 5 96 -19 19 -33 20 -489 20 l-470 0 -21 -27z"/>
<path d="M2521 2887 c-37 -19 -48 -63 -24 -96 l20 -26 471 -3 c461 -2 472 -2
492 18 27 27 25 66 -5 95 l-24 25 -453 0 c-340 0 -459 -3 -477 -13z"/>
<path d="M2500 2493 c-15 -19 -19 -35 -15 -53 14 -57 -4 -55 501 -58 l464 -3
25 25 c30 30 32 69 5 96 -19 19 -33 20 -489 20 l-470 0 -21 -27z"/>
<path d="M2521 2137 c-37 -19 -48 -63 -24 -96 l20 -26 471 -3 c461 -2 472 -2
492 18 27 27 25 66 -5 95 l-24 25 -453 0 c-340 0 -459 -3 -477 -13z"/>
<path d="M2500 1743 c-25 -32 -20 -69 12 -95 19 -17 57 -18 480 -18 l459 0 24
25 c30 29 32 68 5 95 -19 19 -33 20 -489 20 l-470 0 -21 -27z"/>
</g>
</svg>
